<svg width="97" height="30" viewBox="0 0 97 30" fill="none" xmlns="http://www.w3.org/2000/svg" >
<path d="M46.267 14.576C46.267 15.552 46.043 16.448 45.595 17.264C45.147 18.064 44.459 18.712 43.531 19.208C42.603 19.704 41.451 19.952 40.075 19.952H37.531V26H33.427V9.152H40.075C41.419 9.152 42.555 9.384 43.483 9.848C44.411 10.312 45.107 10.952 45.571 11.768C46.035 12.584 46.267 13.52 46.267 14.576ZM39.763 16.688C40.547 16.688 41.131 16.504 41.515 16.136C41.899 15.768 42.091 15.248 42.091 14.576C42.091 13.904 41.899 13.384 41.515 13.016C41.131 12.648 40.547 12.464 39.763 12.464H37.531V16.688H39.763ZM57.5956 12.464C59.1316 12.464 60.3636 12.976 61.2916 14C62.2196 15.008 62.6836 16.4 62.6836 18.176V26H58.6036V18.728C58.6036 17.832 58.3716 17.136 57.9076 16.64C57.4436 16.144 56.8196 15.896 56.0356 15.896C55.2516 15.896 54.6276 16.144 54.1636 16.64C53.6996 17.136 53.4676 17.832 53.4676 18.728V26H49.3636V8.24H53.4676V14.408C53.8836 13.816 54.4516 13.344 55.1716 12.992C55.8916 12.64 56.6996 12.464 57.5956 12.464ZM77.4635 9.152V12.44H70.5995V15.992H75.7355V19.184H70.5995V26H66.4955V9.152H77.4635ZM82.6445 11.216C81.9245 11.216 81.3325 11.008 80.8685 10.592C80.4205 10.16 80.1965 9.632 80.1965 9.008C80.1965 8.368 80.4205 7.84 80.8685 7.424C81.3325 6.992 81.9245 6.776 82.6445 6.776C83.3485 6.776 83.9245 6.992 84.3725 7.424C84.8365 7.84 85.0685 8.368 85.0685 9.008C85.0685 9.632 84.8365 10.16 84.3725 10.592C83.9245 11.008 83.3485 11.216 82.6445 11.216ZM84.6845 12.608V26H80.5805V12.608H84.6845ZM96.0826 22.52V26H93.9946C92.5066 26 91.3466 25.64 90.5146 24.92C89.6826 24.184 89.2666 22.992 89.2666 21.344V16.016H87.6346V12.608H89.2666V9.344H93.3706V12.608H96.0586V16.016H93.3706V21.392C93.3706 21.792 93.4666 22.08 93.6586 22.256C93.8506 22.432 94.1706 22.52 94.6186 22.52H96.0826Z" fill="#8CD9A6"/>
<path d="M4.22896 8.42857H2.27713C1.73631 8.42857 1.30122 9.00179 1.30122 9.71429V15.2857H0.325305C0.146387 15.2857 0 15.4786 0 15.7143V18.2857C0 18.5214 0.146387 18.7143 0.325305 18.7143H1.30122V24.2857C1.30122 24.9982 1.73631 25.5714 2.27713 25.5714H4.22896C4.76978 25.5714 5.20488 24.9982 5.20488 24.2857V9.71429C5.20488 9.00179 4.76978 8.42857 4.22896 8.42857ZM25.6991 15.2857H24.7232V9.71429C24.7232 9.00179 24.2881 8.42857 23.7473 8.42857H21.7954C21.2546 8.42857 20.8195 9.00179 20.8195 9.71429V24.2857C20.8195 24.9982 21.2546 25.5714 21.7954 25.5714H23.7473C24.2881 25.5714 24.7232 24.9982 24.7232 24.2857V18.7143H25.6991C25.878 18.7143 26.0244 18.5214 26.0244 18.2857V15.7143C26.0244 15.4786 25.878 15.2857 25.6991 15.2857ZM18.5424 5H16.5905C16.0497 5 15.6146 5.57321 15.6146 6.28571V15.2857H10.4098V6.28571C10.4098 5.57321 9.97466 5 9.43384 5H7.48201C6.94119 5 6.5061 5.57321 6.5061 6.28571V27.7143C6.5061 28.4268 6.94119 29 7.48201 29H9.43384C9.97466 29 10.4098 28.4268 10.4098 27.7143V18.7143H15.6146V27.7143C15.6146 28.4268 16.0497 29 16.5905 29H18.5424C19.0832 29 19.5183 28.4268 19.5183 27.7143V6.28571C19.5183 5.57321 19.0832 5 18.5424 5Z" fill="#8CD9A6"/>
</svg>
